<svg width="695" height="695" viewBox="0 0 695 695" fill="none" xmlns="http://www.w3.org/2000/svg">
<rect width="695" height="695" rx="347.5" fill="#222222"/>
<path d="M250.395 260.011V342H211.063V200.182H248.549V225.203H250.211C253.35 216.955 258.613 210.43 265.999 205.629C273.385 200.767 282.341 198.335 292.867 198.335C302.715 198.335 311.302 200.49 318.627 204.798C325.952 209.107 331.645 215.262 335.708 223.264C339.77 231.205 341.801 240.684 341.801 251.702V342H302.469V258.719C302.531 250.04 300.315 243.269 295.821 238.406C291.328 233.482 285.142 231.02 277.263 231.02C271.97 231.02 267.292 232.159 263.229 234.436C259.228 236.714 256.089 240.037 253.811 244.408C251.595 248.716 250.457 253.918 250.395 260.011ZM400.64 301.19L400.733 254.01H406.457L451.883 200.182H497.032L436.003 271.46H426.677L400.64 301.19ZM365.001 342V152.909H404.333V342H365.001ZM453.637 342L411.905 280.232L438.126 252.44L499.71 342H453.637ZM216.463 352.909V542H177.131V352.909H216.463ZM304.247 544.77C289.721 544.77 277.226 541.692 266.762 535.537C256.359 529.32 248.357 520.703 242.756 509.685C237.216 498.667 234.446 485.987 234.446 471.645C234.446 457.118 237.247 444.377 242.848 433.42C248.511 422.402 256.544 413.816 266.946 407.661C277.349 401.444 289.721 398.335 304.063 398.335C316.435 398.335 327.268 400.582 336.563 405.075C345.857 409.569 353.213 415.878 358.629 424.003C364.046 432.128 367.031 441.669 367.585 452.625H330.469C329.423 445.546 326.653 439.853 322.159 435.544C317.727 431.174 311.911 428.989 304.709 428.989C298.615 428.989 293.291 430.651 288.736 433.974C284.243 437.237 280.734 442.007 278.21 448.286C275.687 454.564 274.425 462.166 274.425 471.091C274.425 480.139 275.656 487.833 278.118 494.173C280.642 500.513 284.181 505.345 288.736 508.669C293.291 511.993 298.615 513.655 304.709 513.655C309.202 513.655 313.234 512.732 316.804 510.885C320.436 509.038 323.421 506.361 325.76 502.852C328.161 499.282 329.73 495.004 330.469 490.018H367.585C366.97 500.852 364.015 510.393 358.722 518.641C353.49 526.827 346.257 533.229 337.024 537.845C327.791 542.462 316.866 544.77 304.247 544.77ZM385.707 542V352.909H425.039V424.003H426.24C427.963 420.187 430.456 416.309 433.718 412.369C437.042 408.368 441.351 405.045 446.644 402.398C452 399.689 458.647 398.335 466.588 398.335C476.929 398.335 486.469 401.044 495.21 406.46C503.95 411.815 510.937 419.91 516.169 430.743C521.401 441.515 524.017 455.026 524.017 471.276C524.017 487.095 521.462 500.452 516.353 511.347C511.306 522.18 504.412 530.397 495.671 535.999C486.992 541.538 477.267 544.308 466.495 544.308C458.863 544.308 452.369 543.046 447.014 540.523C441.72 537.999 437.381 534.829 433.995 531.013C430.61 527.135 428.025 523.226 426.24 519.287H424.485V542H385.707ZM424.208 471.091C424.208 479.524 425.378 486.879 427.717 493.158C430.056 499.436 433.441 504.33 437.873 507.838C442.305 511.285 447.691 513.009 454.031 513.009C460.432 513.009 465.849 511.254 470.281 507.746C474.713 504.176 478.067 499.251 480.345 492.973C482.684 486.633 483.853 479.339 483.853 471.091C483.853 462.904 482.715 455.703 480.437 449.486C478.16 443.269 474.805 438.406 470.373 434.898C465.941 431.389 460.494 429.635 454.031 429.635C447.629 429.635 442.213 431.328 437.781 434.713C433.411 438.098 430.056 442.9 427.717 449.116C425.378 455.333 424.208 462.658 424.208 471.091Z" fill="white"/>
</svg>
