<svg width="15" height="21" viewBox="0 0 15 21" fill="none" xmlns="http://www.w3.org/2000/svg">
<path d="M1.88965 18.2806L11.8916 20.0472C13.8076 20.3812 14.9854 19.3001 14.9854 17.2259V6.39777C14.9854 5.39582 14.7305 4.71906 14.2031 4.25324V2.63605C14.2031 0.658514 12.8584 -0.308282 10.6348 0.0872254L1.6084 1.67805C0.624023 1.80109 0 2.55695 0 3.69953V16.1009C0 17.3138 0.650391 18.0609 1.88965 18.2806ZM12.1201 3.41828L6.54785 2.43391L11.1797 1.65168C12.0059 1.51984 12.5068 1.85383 12.5068 2.56574V3.48859C12.3838 3.46223 12.252 3.43586 12.1201 3.41828ZM2.4082 16.5403C1.98633 16.47 1.79297 16.2152 1.79297 15.7933V4.13019C1.79297 3.68195 2.0918 3.44465 2.5752 3.53254L11.9795 5.18488C12.7793 5.32551 13.1924 5.65949 13.1924 6.38019V17.0501C13.1924 17.9202 12.6826 18.3597 11.8564 18.2103L2.4082 16.5403ZM2.90918 7.60187C2.90918 8.39289 4.15723 8.39289 4.15723 7.64582V6.51203C4.15723 6.2923 4.28027 6.19562 4.52637 6.23957L5.60742 6.43293C6.41602 6.57355 6.58301 5.36066 5.8623 5.22883L4.00781 4.90363C3.33105 4.78937 2.90918 5.0882 2.90918 5.73859V7.60187ZM10.8281 8.93781C10.8281 9.72883 12.0762 9.80793 12.0762 8.93781V7.51398C12.0762 6.67902 11.6719 6.25715 10.6875 6.08137L9.76465 5.91437C8.90332 5.76496 8.70117 6.97785 9.55371 7.12726L10.2744 7.25031C10.749 7.3382 10.8281 7.60187 10.8281 7.87433V8.93781ZM4.15723 12.9105C4.15723 12.1107 2.90918 12.0403 2.90918 12.9105V14.3343C2.90918 15.1693 3.31348 15.5911 4.29785 15.7581L5.2207 15.9251C6.08203 16.0745 6.28418 14.8704 5.43164 14.721L4.71094 14.5892C4.23633 14.5101 4.15723 14.2376 4.15723 13.9652V12.9105ZM12.0762 14.2464C12.0762 13.4554 10.8281 13.4466 10.8281 14.1937V15.3362C10.8281 15.5472 10.7051 15.6439 10.4678 15.5999L9.38672 15.4153C8.57812 15.2659 8.40234 16.4876 9.12305 16.6107L10.9775 16.9359C11.6543 17.0589 12.0762 16.7513 12.0762 16.1009V14.2464Z" fill="#1C1C1E"/>
</svg>
